<?xml version="1.0" encoding="utf-8"?>
<!-- Generator: Adobe Illustrator 16.0.0, SVG Export Plug-In . SVG Version: 6.00 Build 0)  -->
<!DOCTYPE svg PUBLIC "-//W3C//DTD SVG 1.1//EN" "http://www.w3.org/Graphics/SVG/1.1/DTD/svg11.dtd">
<svg version="1.1" id="Layer_1" xmlns="http://www.w3.org/2000/svg" xmlns:xlink="http://www.w3.org/1999/xlink" x="0px" y="0px"
	 width="112px" height="94px" viewBox="0 0 112 94" enable-background="new 0 0 112 94" xml:space="preserve">
<path fill="#9BD69A" d="M18.5,24.108V14c0-0.328-0.161-0.635-0.431-0.822c-0.271-0.186-0.614-0.229-0.921-0.114l-12.25,4.605
	c-0.39,0.146-0.648,0.52-0.648,0.936v9.479C4.008,28.032,3.758,28,3.5,28C1.567,28,0,29.567,0,31.5S1.567,35,3.5,35S7,33.433,7,31.5
	c0-0.811-0.287-1.548-0.75-2.142V19.298l10.25-3.854v7.391c-0.242-0.053-0.492-0.085-0.75-0.085c-1.933,0-3.5,1.567-3.5,3.5
	s1.567,3.5,3.5,3.5s3.5-1.567,3.5-3.5C19.25,25.439,18.963,24.702,18.5,24.108z"/>
<path fill="#9BD69A" d="M110.5,58.108V48c0-0.328-0.161-0.635-0.431-0.822c-0.27-0.187-0.615-0.229-0.921-0.114l-12.25,4.605
	c-0.391,0.147-0.648,0.52-0.648,0.937v9.479C96.008,62.032,95.758,62,95.5,62c-1.934,0-3.5,1.566-3.5,3.5s1.566,3.5,3.5,3.5
	s3.5-1.566,3.5-3.5c0-0.812-0.287-1.549-0.75-2.142V53.298l10.25-3.854v7.391c-0.242-0.053-0.492-0.085-0.75-0.085
	c-1.934,0-3.5,1.566-3.5,3.5s1.566,3.5,3.5,3.5s3.5-1.566,3.5-3.5C111.25,59.438,110.963,58.701,110.5,58.108z"/>
<g>
	<path fill="#4D4D4D" d="M25.706,86.265c-0.22,0-0.441-0.072-0.624-0.219l-6.544-5.235c-0.432-0.346-0.501-0.975-0.156-1.406
		c0.345-0.431,0.975-0.501,1.405-0.156l5.846,4.677l3.294-3.294c0.391-0.391,1.023-0.391,1.414,0s0.391,1.023,0,1.414l-3.927,3.927
		C26.22,86.166,25.963,86.265,25.706,86.265z"/>
</g>
<path fill="#4D4D4D" d="M54.989,93.615h-2.098c-3.861,0-7.144-0.73-9.761-2.171c-0.129-0.042-0.276-0.111-0.42-0.227
	c-1.241-0.74-2.4-1.694-3.356-2.763c-3.898-4.471-3.996-10.214-3.856-12.476l0.009-0.155l0.4-4.124
	c0.211-1.089,1.043-1.808,1.994-1.808c3.321,0,4.046-4.169,4.194-5.566c-0.102-2.068-1.085-4.47-1.278-4.921
	c-0.523-0.766-0.985-1.063-1.104-1.132l-0.03-0.01c-0.732-0.243-1.284-1.04-1.284-1.854v-4.325c0-10.645,7.731-14.095,11.813-15.173
	l0.38-14.422l0-11.984l-1.773-3.193c-0.384-0.574-0.384-1.402,0.04-2.043l1.977-3.283C51.251,1.355,51.862,1,52.491,1h3.198
	c0.252,0,0.464,0.057,0.619,0.099c0.022,0.006,0.045,0.013,0.067,0.019l0.655-0.22l2.413,4.006c0.402,0.604,0.402,1.434-0.023,2.075
	l-1.732,3.125v12.011l0.286,14.418c1.271,0.372,2.557,0.878,3.761,1.484l0.12,0.071l1.543,1.068c0.491,0.253,0.852,0.513,1.195,0.86
	l1.324,1.434c2.428,2.564,3.663,6.044,3.663,10.333v4.324c0,0.849-0.467,1.559-1.18,1.821c-1.495,0.865-2.413,3.182-2.519,6.358
	c0.001,0.023,0.334,5.605,4.197,5.605c0.95,0,1.783,0.719,1.979,1.71l0.424,4.377c0.14,2.262,0.042,8.005-3.848,12.466
	C65.542,91.88,60.954,93.615,54.989,93.615z M43.74,89.504h0.019l0.229,0.129c2.333,1.315,5.329,1.982,8.903,1.982h2.098
	c5.375,0,9.462-1.513,12.149-4.496c3.393-3.892,3.473-9.001,3.349-11.017c-0.005-0.093-0.008-0.154-0.008-0.182l-0.396-4.027
	c0.004,0.042-0.03-0.003-0.041-0.01c-0.004,0-0.008,0-0.012,0c-5.047,0-6.147-6.115-6.147-7.63c0.174-5.281,2.227-7.292,3.476-8.032
	l0.109-0.109l0.104-0.027l0.008-4.302c0-3.761-1.051-6.778-3.124-8.967l-1.308-1.417c-0.179-0.179-0.386-0.323-0.715-0.489
	l-0.119-0.071l-1.54-1.066c-1.63-0.813-3.089-1.265-4.03-1.502l-0.741-0.187l-0.316-15.95V9.585l2.025-3.646L56.01,3.084
	c-0.083-0.017-0.158-0.037-0.221-0.054c-0.043-0.012-0.085-0.026-0.128-0.032L52.57,3c-0.013,0.012-0.028,0.03-0.044,0.055
	l-1.977,3.283l2.042,3.65v12.529L52.17,38.511l-0.763,0.169c-4.111,0.908-11.008,3.858-11.008,13.405v4.311
	c0.652,0.241,1.485,0.999,2.132,1.976l0.08,0.146c0.026,0.06,0.333,0.753,0.66,1.749l0.296-0.073
	c0.103,0.415,0.207,0.935,0.31,1.453l-0.193,0.039c0.209,0.836,0.376,1.751,0.411,2.631l0.003,0.069l-0.007,0.069
	c-0.358,3.596-2.172,7.438-6.19,7.438c0.022,0.001-0.008,0.039-0.02,0.099l-0.383,4.001c0,0.015-0.002,0.058-0.006,0.11
	c-0.124,2.016-0.044,7.125,3.36,11.028C41.668,88.044,42.668,88.866,43.74,89.504z M10.759,89.842l23.56-27.486
	c0.359-0.419,0.311-1.05-0.108-1.409c-0.418-0.359-1.05-0.312-1.41,0.108L9.241,88.541c-0.359,0.419-0.311,1.05,0.108,1.409
	c0.188,0.162,0.42,0.241,0.65,0.241C10.281,90.191,10.562,90.073,10.759,89.842z M73.565,37.51l20.542-22.571
	c0.359-0.395,0.346-1.002-0.032-1.38c-2.536-2.536-5.202-3.75-7.949-3.593c-4.151,0.23-6.84,3.535-6.924,3.642L62.911,32.252
	c-0.363,0.416-0.321,1.048,0.095,1.411c0.414,0.363,1.048,0.321,1.411-0.095l16.317-18.676c0.022-0.027,2.268-2.759,5.52-2.931
	c1.905-0.093,3.825,0.692,5.713,2.358l-19.88,21.845c-0.372,0.408-0.342,1.041,0.066,1.413c0.191,0.174,0.433,0.26,0.673,0.26
	C73.098,37.837,73.368,37.727,73.565,37.51z"/>
</svg>
