<?xml version="1.0" encoding="utf-8"?>
<!-- Generator: Adobe Illustrator 16.0.0, SVG Export Plug-In . SVG Version: 6.00 Build 0)  -->
<!DOCTYPE svg PUBLIC "-//W3C//DTD SVG 1.1//EN" "http://www.w3.org/Graphics/SVG/1.1/DTD/svg11.dtd">
<svg version="1.1" id="Layer_1" xmlns="http://www.w3.org/2000/svg" xmlns:xlink="http://www.w3.org/1999/xlink" x="0px" y="0px"
	 width="105px" height="90px" viewBox="0 -7.5 105 90" enable-background="new 0 -7.5 105 90" xml:space="preserve">
<path fill="#4D4D4D" d="M56,34h-9c-0.552,0-1-0.448-1-1s0.448-1,1-1h9c0.553,0,1,0.448,1,1S56.553,34,56,34z M49,46
	c0-0.553-0.448-1-1-1H27c-0.552,0-1,0.447-1,1s0.448,1,1,1h21C48.552,47,49,46.553,49,46z M9,66c0-0.553-0.448-1-1-1H1
	c-0.552,0-1,0.447-1,1s0.448,1,1,1h7C8.552,67,9,66.553,9,66z M105,51.5v9.2c0,3.477-2.725,6.2-6.2,6.2h-3.745
	C94.602,71.441,90.759,75,86.1,75c-4.658,0-8.5-3.559-8.953-8.1H44.041c-0.5,4.492-4.317,8.1-8.941,8.1s-8.441-3.507-8.941-8H14.1
	c-0.552,0-1-0.447-1-1s0.448-1,1-1h12.059c0.5-4.493,4.317-8,8.941-8s8.441,3.507,8.941,8H56.68c2.889,0,8.904,0,8.904,0
	c1.458-0.345,2.516-1.723,2.516-3.3V22.3c0-1.851-1.449-3.3-3.3-3.3H40.049c0.019-0.333,0.051-0.663,0.051-1s-0.032-0.667-0.051-1
	H64.8c2.972,0,5.3,2.328,5.3,5.3v7.8H85c2.266,0,4.398,0.885,6.007,2.493l10.5,10.5C103.727,45.313,105,48.378,105,51.5z M42.1,66
	c0-0.341-0.033-0.673-0.08-1c-0.488-3.387-3.4-6-6.92-6s-6.432,2.613-6.92,6c-0.047,0.327-0.08,0.659-0.08,1s0.033,0.673,0.08,1
	c0.488,3.387,3.4,6,6.92,6s6.432-2.613,6.92-6C42.067,66.673,42.1,66.341,42.1,66z M93.1,66c0-0.375-0.037-0.74-0.095-1.1
	c-0.53-3.338-3.421-5.9-6.905-5.9c-3.483,0-6.375,2.563-6.904,5.9C79.139,65.26,79.1,65.625,79.1,66c0,0.307,0.026,0.604,0.064,0.9
	c0.443,3.435,3.382,6.1,6.936,6.1c3.555,0,6.491-2.665,6.937-6.1C93.072,66.604,93.1,66.307,93.1,66z M103,51.5
	c0-2.596-1.061-5.145-2.907-6.992l-10.5-10.5C88.361,32.777,86.73,32.1,85,32.1H70.1v29.6c0,1.218-0.406,2.313-1.072,3.2h8.146
	C77.719,60.455,81.51,57,86.1,57s8.381,3.455,8.926,7.9H98.8c2.354,0,4.2-1.846,4.2-4.2V51.5z"/>
<path fill="#9BD69A" d="M39.949,17C39.426,7.541,31.588,0,22,0C12.075,0,4,8.075,4,18s8.075,18,18,18
	c9.588,0,17.426-7.541,17.949-17C39.968,18.667,40,18.337,40,18S39.968,17.333,39.949,17z M22,34c-8.822,0-16-7.178-16-16
	S13.178,2,22,2s16,7.178,16,16S30.822,34,22,34z M30,20.5h-9c-0.829,0-1.5-0.671-1.5-1.5v-9c0-0.829,0.671-1.5,1.5-1.5
	s1.5,0.671,1.5,1.5v7.5H30c0.829,0,1.5,0.671,1.5,1.5S30.829,20.5,30,20.5z"/>
</svg>
