<?xml version="1.0" encoding="utf-8"?>
<!-- Generator: Adobe Illustrator 16.0.0, SVG Export Plug-In . SVG Version: 6.00 Build 0)  -->
<!DOCTYPE svg PUBLIC "-//W3C//DTD SVG 1.1//EN" "http://www.w3.org/Graphics/SVG/1.1/DTD/svg11.dtd">
<svg version="1.1" id="Layer_1" xmlns="http://www.w3.org/2000/svg" xmlns:xlink="http://www.w3.org/1999/xlink" x="0px" y="0px"
	 width="120px" height="90px" viewBox="0 -8.5 120 90" enable-background="new 0 -8.5 120 90" xml:space="preserve">
<g>
	<circle fill="#4D4D4D" cx="20.625" cy="8.5" r="1.875"/>
	<circle fill="#4D4D4D" cx="27.188" cy="8.5" r="1.875"/>
	<circle fill="#4D4D4D" cx="33.75" cy="8.5" r="1.875"/>
	<path fill="#4D4D4D" d="M119,70.25h-10.188V6c0-3.309-2.691-6-6-6H18.125c-3.309,0-6,2.691-6,6v64.25H1c-0.552,0-1,0.447-1,1
		s0.448,1,1,1h11.125h96.688H119c0.553,0,1-0.447,1-1S119.553,70.25,119,70.25z M106.813,70.25H14.125V6c0-2.206,1.794-4,4-4h84.688
		c2.207,0,4,1.794,4,4V70.25z"/>
</g>
<path fill="#9BD69A" d="M59.582,27.5c0.581,0,1.156,0.113,1.691,0.332c0.537,0.22,1.023,0.541,1.436,0.946
	c0.41,0.405,0.736,0.886,0.958,1.416c0.222,0.529,0.337,1.097,0.337,1.67v4.364h2.26v8.728H53v-8.728h2.161v-4.364
	c0-0.573,0.114-1.141,0.336-1.67c0.222-0.53,0.548-1.011,0.958-1.416c0.411-0.405,0.898-0.727,1.434-0.946
	C58.427,27.613,59.001,27.5,59.582,27.5z M59.582,29.682c-0.29,0-0.578,0.057-0.846,0.166c-0.269,0.11-0.512,0.271-0.717,0.473
	c-0.205,0.202-0.368,0.443-0.479,0.708c-0.111,0.265-0.168,0.548-0.168,0.835v4.364h4.421v-4.364c0-0.579-0.232-1.134-0.646-1.543
	C60.73,29.912,60.168,29.682,59.582,29.682z M60,61.5c-0.117,0-0.234-0.021-0.346-0.063c-3.466-1.278-12.028-5.049-16.666-12.426
	c-5.593-8.896-4.989-26.729-4.96-27.484c0.015-0.385,0.249-0.728,0.603-0.88l20.973-9.066c0.254-0.109,0.54-0.109,0.794,0
	l20.972,9.066c0.354,0.153,0.588,0.495,0.603,0.88c0.028,0.755,0.633,18.589-4.959,27.484c-4.639,7.377-13.199,11.146-16.667,12.426
	C60.234,61.479,60.117,61.5,60,61.5z M40.012,22.229c-0.054,3.244-0.032,18.24,4.669,25.719C48.93,54.707,57.084,58.314,60,59.432
	c2.916-1.115,11.07-4.725,15.318-11.482c4.701-7.479,4.724-22.476,4.67-25.719L60,13.589L40.012,22.229z"/>
</svg>
